<svg id="Layer_2" data-name="Layer 2" xmlns="http://www.w3.org/2000/svg" viewBox="0 0 1920 1080"><defs><style>.cls-1{fill:#fff;stroke:#000;stroke-miterlimit:10;}</style></defs><polygon class="cls-1" points="1156 477 1156 603 1046 603 1046 554 992 554 992 581 1035 581 1035 603 970 603 970 532 1046 532 1046 477 1068 477 1068 581 1090 581 1090 477 1112 477 1112 581 1134 581 1134 477 1156 477"/><rect class="cls-1" x="805" y="581" width="22" height="22"/><polygon class="cls-1" points="948 532 948 603 849 603 849 554 783 554 783 603 761 603 761 532 871 532 871 581 926 581 926 554 880 554 880 532 948 532"/><rect class="cls-1" x="760" y="477" width="269" height="22"/></svg>