<svg id="Layer_2" data-name="Layer 2" xmlns="http://www.w3.org/2000/svg" viewBox="0 0 422 175"><defs><style>.cls-1{fill:#fff;}.cls-1,.cls-2{stroke:green;stroke-miterlimit:10;}.cls-2{fill:green;}</style></defs><polygon class="cls-1" points="409 2 409 128 299 128 299 79 245 79 245 106 288 106 288 128 223 128 223 57 299 57 299 2 321 2 321 106 343 106 343 2 365 2 365 106 387 106 387 2 409 2"/><rect class="cls-1" x="58" y="106" width="22" height="22"/><polygon class="cls-1" points="201 57 201 128 102 128 102 79 36 79 36 128 14 128 14 57 124 57 124 106 179 106 179 79 133 79 133 57 201 57"/><rect class="cls-1" x="13.5" y="2.5" width="269" height="22"/><polygon class="cls-2" points="2.5 173.5 2.5 2.5 13.5 2.5 13.5 128.5 408.5 128.5 408.5 2.5 419.5 2.5 419.5 173.5 408.5 173.5 408.5 150.5 220.5 150.5 220.5 172.5 198.5 172.5 198.5 150.5 13.5 150.5 13.5 173.5 2.5 173.5"/></svg>