<svg id="Layer_2" data-name="Layer 2" xmlns="http://www.w3.org/2000/svg" viewBox="0 0 420 174"><defs><style>.cls-1{fill:#fff;}.cls-1,.cls-2{stroke:red;stroke-miterlimit:10;}.cls-2{fill:red;}</style></defs><polygon class="cls-1" points="408 46 408 172 298 172 298 123 244 123 244 150 287 150 287 172 222 172 222 101 298 101 298 46 320 46 320 150 342 150 342 46 364 46 364 150 386 150 386 46 408 46"/><rect class="cls-1" x="57" y="150" width="22" height="22"/><polygon class="cls-1" points="200 101 200 172 101 172 101 123 35 123 35 172 13 172 13 101 123 101 123 150 178 150 178 123 132 123 132 101 200 101"/><rect class="cls-1" x="12.5" y="46.5" width="269" height="22"/><polygon class="cls-2" points="418.5 1.5 418.5 172.5 407.5 172.5 407.5 46.5 12.5 46.5 12.5 172.5 1.5 172.5 1.5 1.5 12.5 1.5 12.5 24.5 200.5 24.5 200.5 2.5 222.5 2.5 222.5 24.5 407.5 24.5 407.5 1.5 418.5 1.5"/></svg>