<svg id="Capa_1" data-name="Capa 1" xmlns="http://www.w3.org/2000/svg" width="16px" height="16px" viewBox="0 0 45.31 45.31"><defs><style>.cls-1{fill:#d93025;}</style></defs><path class="cls-1" d="M22.67,0h0a22.64,22.64,0,0,0,0,45.27h0A22.64,22.64,0,0,0,22.67,0Zm0,38.79h0a3.71,3.71,0,0,1,0-7.41h0a3.71,3.71,0,1,1,0,7.41ZM28,10.58c-.24,3.69-1.93,14.69-1.93,14.69a3.38,3.38,0,0,1-3.38,3.36h-.05a3.38,3.38,0,0,1-3.38-3.36s-1.69-11-1.93-14.69a5.14,5.14,0,0,1,5.31-5.29h.05A5.14,5.14,0,0,1,28,10.58Z"/></svg>