<svg xmlns="http://www.w3.org/2000/svg" viewBox="0 0 46.97 47.57"><path d="M24 12a1.89 1.89 0 0 0 2 2h12a1.89 1.89 0 0 1 2 2v22a1.89 1.89 0 0 1-2 2H16a1.89 1.89 0 0 1-2-2V26a1.89 1.89 0 0 0-2-2 1.89 1.89 0 0 0-2 2v12a5.89 5.89 0 0 0 6 6h22a5.89 5.89 0 0 0 6-6V16a5.89 5.89 0 0 0-6-6H26a1.89 1.89 0 0 0-2 2zM5.2 4.2a2.41 2.41 0 0 0-1 1A1.2 1.2 0 0 0 4 6v12a1.89 1.89 0 0 0 2 2 1.89 1.89 0 0 0 2-2v-7.2l18.6 18.6a1.93 1.93 0 0 0 2.8 0 1.93 1.93 0 0 0 0-2.8L10.8 8H18a1.89 1.89 0 0 0 2-2 1.89 1.89 0 0 0-2-2H6a1.2 1.2 0 0 0-.8.2z"/></svg>